<svg viewBox="0 0 320 464" xmlns="http://www.w3.org/2000/svg" version="1.1"><path d="m112 0h16v16h-16z" fill="#b87cc6"></path><path d="m128 0h16v16h-16z" fill="#b87cc6"></path><path d="m144 0h16v16h-16z" fill="#b87cc6"></path><path d="m160 0h16v16h-16z" fill="#b87cc6"></path><path d="m176 0h16v16h-16z" fill="#b87cc6"></path><path d="m192 0h16v16h-16z" fill="#b87cc6"></path><path d="m80 16h16v16h-16z" fill="#b87cc6"></path><path d="m96 16h16v16h-16z" fill="#b87cc6"></path><path d="m112 16h16v16h-16z" fill="#b87cc6"></path><path d="m128 16h16v16h-16z" fill="#e1c0e8"></path><path d="m144 16h16v16h-16z" fill="#e1c0e8"></path><path d="m160 16h16v16h-16z" fill="#e1c0e8"></path><path d="m176 16h16v16h-16z" fill="#e1c0e8"></path><path d="m192 16h16v16h-16z" fill="#e1c0e8"></path><path d="m208 16h16v16h-16z" fill="#b87cc6"></path><path d="m224 16h16v16h-16z" fill="#b87cc6"></path><path d="m48 32h16v16h-16z" fill="#b87cc6"></path><path d="m64 32h16v16h-16z" fill="#b87cc6"></path><path d="m80 32h16v16h-16z" fill="#e1c0e8"></path><path d="m96 32h16v16h-16z" fill="#e1c0e8"></path><path d="m112 32h16v16h-16z" fill="#e1c0e8"></path><path d="m128 32h16v16h-16z" fill="#e1c0e8"></path><path d="m144 32h16v16h-16z" fill="#e1c0e8"></path><path d="m160 32h16v16h-16z" fill="#ddbae5"></path><path d="m176 32h16v16h-16z" fill="#ddbae5"></path><path d="m192 32h16v16h-16z" fill="#e1c0e8"></path><path d="m208 32h16v16h-16z" fill="#e1c0e8"></path><path d="m224 32h16v16h-16z" fill="#e1c0e8"></path><path d="m240 32h16v16h-16z" fill="#b87cc6"></path><path d="m256 32h16v16h-16z" fill="#b87cc6"></path><path d="m48 48h16v16h-16z" fill="#b87cc6"></path><path d="m64 48h16v16h-16z" fill="#e1c0e8"></path><path d="m80 48h16v16h-16z" fill="#e1c0e8"></path><path d="m96 48h16v16h-16z" fill="#e1c0e8"></path><path d="m112 48h16v16h-16z" fill="#f3e0f7"></path><path d="m128 48h16v16h-16z" fill="#e1c0e8"></path><path d="m144 48h16v16h-16z" fill="#e1c0e8"></path><path d="m160 48h16v16h-16z" fill="#e1c0e8"></path><path d="m176 48h16v16h-16z" fill="#e1c0e8"></path><path d="m192 48h16v16h-16z" fill="#ddbae5"></path><path d="m208 48h16v16h-16z" fill="#ddbae5"></path><path d="m224 48h16v16h-16z" fill="#ddbae5"></path><path d="m240 48h16v16h-16z" fill="#ddbae5"></path><path d="m256 48h16v16h-16z" fill="#b87cc6"></path><path d="m272 48h16v16h-16z" fill="#b87cc6"></path><path d="m32 64h16v16h-16z" fill="#b87cc6"></path><path d="m48 64h16v16h-16z" fill="#b87cc6"></path><path d="m64 64h16v16h-16z" fill="#e1c0e8"></path><path d="m80 64h16v16h-16z" fill="#e1c0e8"></path><path d="m96 64h16v16h-16z" fill="#e1c0e8"></path><path d="m112 64h16v16h-16z" fill="#e1c0e8"></path><path d="m128 64h16v16h-16z" fill="#e1c0e8"></path><path d="m144 64h16v16h-16z" fill="#e1c0e8"></path><path d="m160 64h16v16h-16z" fill="#e1c0e8"></path><path d="m176 64h16v16h-16z" fill="#e1c0e8"></path><path d="m192 64h16v16h-16z" fill="#ddbae5"></path><path d="m208 64h16v16h-16z" fill="#ddbae5"></path><path d="m224 64h16v16h-16z" fill="#ddbae5"></path><path d="m240 64h16v16h-16z" fill="#f3e0f7"></path><path d="m256 64h16v16h-16z" fill="#ddbae5"></path><path d="m272 64h16v16h-16z" fill="#b87cc6"></path><path d="m16 80h16v16h-16z" fill="#b87cc6"></path><path d="m32 80h16v16h-16z" fill="#b87cc6"></path><path d="m48 80h16v16h-16z" fill="#e1c0e8"></path><path d="m64 80h16v16h-16z" fill="#e1c0e8"></path><path d="m80 80h16v16h-16z" fill="#e1c0e8"></path><path d="m96 80h16v16h-16z" fill="#e1c0e8"></path><path d="m112 80h16v16h-16z" fill="#e1c0e8"></path><path d="m128 80h16v16h-16z" fill="#e1c0e8"></path><path d="m144 80h16v16h-16z" fill="#f3e0f7"></path><path d="m160 80h16v16h-16z" fill="#e1c0e8"></path><path d="m176 80h16v16h-16z" fill="#e1c0e8"></path><path d="m192 80h16v16h-16z" fill="#f3e0f7"></path><path d="m208 80h16v16h-16z" fill="#f3e0f7"></path><path d="m224 80h16v16h-16z" fill="#f3e0f7"></path><path d="m240 80h16v16h-16z" fill="#ddbae5"></path><path d="m256 80h16v16h-16z" fill="#ddbae5"></path><path d="m272 80h16v16h-16z" fill="#b87cc6"></path><path d="m288 80h16v16h-16z" fill="#b87cc6"></path><path d="m16 96h16v16h-16z" fill="#b87cc6"></path><path d="m32 96h16v16h-16z" fill="#e1c0e8"></path><path d="m48 96h16v16h-16z" fill="#ddbae5"></path><path d="m64 96h16v16h-16z" fill="#e1c0e8"></path><path d="m80 96h16v16h-16z" fill="#e1c0e8"></path><path d="m96 96h16v16h-16z" fill="#ddbae5"></path><path d="m112 96h16v16h-16z" fill="#e1c0e8"></path><path d="m128 96h16v16h-16z" fill="#e1c0e8"></path><path d="m144 96h16v16h-16z" fill="#ddbae5"></path><path d="m160 96h16v16h-16z" fill="#ddbae5"></path><path d="m176 96h16v16h-16z" fill="#ddbae5"></path><path d="m192 96h16v16h-16z" fill="#ddbae5"></path><path d="m208 96h16v16h-16z" fill="#ddbae5"></path><path d="m224 96h16v16h-16z" fill="#ddbae4"></path><path d="m240 96h16v16h-16z" fill="#dfbee7"></path><path d="m256 96h16v16h-16z" fill="#e1c0e8"></path><path d="m272 96h16v16h-16z" fill="#e1c0e8"></path><path d="m288 96h16v16h-16z" fill="#b87cc6"></path><path d="m0 112h16v16h-16z" fill="#b87cc6"></path><path d="m16 112h16v16h-16z" fill="#b87cc6"></path><path d="m32 112h16v16h-16z" fill="#e1c0e8"></path><path d="m48 112h16v16h-16z" fill="#ddbae5"></path><path d="m64 112h16v16h-16z" fill="#ddbae5"></path><path d="m80 112h16v16h-16z" fill="#ddbae5"></path><path d="m96 112h16v16h-16z" fill="#ddbae5"></path><path d="m112 112h16v16h-16z" fill="#ddbae5"></path><path d="m128 112h16v16h-16z" fill="#ddbae5"></path><path d="m144 112h16v16h-16z" fill="#ddbae5"></path><path d="m160 112h16v16h-16z" fill="#ddbae5"></path><path d="m176 112h16v16h-16z" fill="#e0bee7"></path><path d="m192 112h16v16h-16z" fill="#d2a3dd"></path><path d="m208 112h16v16h-16z" fill="#dfbee7"></path><path d="m224 112h16v16h-16z" fill="#e0bee7"></path><path d="m240 112h16v16h-16z" fill="#e1c0e8"></path><path d="m256 112h16v16h-16z" fill="#e1c0e8"></path><path d="m272 112h16v16h-16z" fill="#e1c0e8"></path><path d="m288 112h16v16h-16z" fill="#e1c0e8"></path><path d="m304 112h16v16h-16z" fill="#b87cc6"></path><path d="m0 128h16v16h-16z" fill="#b87cc6"></path><path d="m16 128h16v16h-16z" fill="#b87cc6"></path><path d="m32 128h16v16h-16z" fill="#e1c0e8"></path><path d="m48 128h16v16h-16z" fill="#ddbae5"></path><path d="m64 128h16v16h-16z" fill="#ddbae5"></path><path d="m80 128h16v16h-16z" fill="#ddbae5"></path><path d="m96 128h16v16h-16z" fill="#ddbae5"></path><path d="m112 128h16v16h-16z" fill="#ddbae5"></path><path d="m128 128h16v16h-16z" fill="#d2a3dd"></path><path d="m144 128h16v16h-16z" fill="#e1c0e8"></path><path d="m160 128h16v16h-16z" fill="#e1c0e8"></path><path d="m176 128h16v16h-16z" fill="#d2a3dd"></path><path d="m192 128h16v16h-16z" fill="#d2a3dd"></path><path d="m208 128h16v16h-16z" fill="#e1c0e8"></path><path d="m224 128h16v16h-16z" fill="#e1c0e8"></path><path d="m240 128h16v16h-16z" fill="#e1c0e8"></path><path d="m256 128h16v16h-16z" fill="#e1c0e8"></path><path d="m272 128h16v16h-16z" fill="#e1c0e8"></path><path d="m288 128h16v16h-16z" fill="#e1c0e8"></path><path d="m304 128h16v16h-16z" fill="#b87cc6"></path><path d="m0 144h16v16h-16z" fill="#b87cc6"></path><path d="m16 144h16v16h-16z" fill="#b87cc6"></path><path d="m32 144h16v16h-16z" fill="#e1c0e8"></path><path d="m48 144h16v16h-16z" fill="#ddbae5"></path><path d="m64 144h16v16h-16z" fill="#e1c0e8"></path><path d="m80 144h16v16h-16z" fill="#e1c0e8"></path><path d="m96 144h16v16h-16z" fill="#e1c0e8"></path><path d="m112 144h16v16h-16z" fill="#e1c0e8"></path><path d="m128 144h16v16h-16z" fill="#d2a3dd"></path><path d="m144 144h16v16h-16z" fill="#e1c0e8"></path><path d="m160 144h16v16h-16z" fill="#e1c0e8"></path><path d="m176 144h16v16h-16z" fill="#d2a3dd"></path><path d="m192 144h16v16h-16z" fill="#d2a3dd"></path><path d="m208 144h16v16h-16z" fill="#e1c0e8"></path><path d="m224 144h16v16h-16z" fill="#ddbae4"></path><path d="m240 144h16v16h-16z" fill="#e1c0e8"></path><path d="m256 144h16v16h-16z" fill="#e1c0e8"></path><path d="m272 144h16v16h-16z" fill="#e1c0e8"></path><path d="m288 144h16v16h-16z" fill="#e1c0e8"></path><path d="m304 144h16v16h-16z" fill="#b87cc6"></path><path d="m0 160h16v16h-16z" fill="#b87cc6"></path><path d="m16 160h16v16h-16z" fill="#b87cc6"></path><path d="m32 160h16v16h-16z" fill="#e1c0e8"></path><path d="m48 160h16v16h-16z" fill="#ddbae5"></path><path d="m64 160h16v16h-16z" fill="#d2a3dd"></path><path d="m80 160h16v16h-16z" fill="#ddbae5"></path><path d="m96 160h16v16h-16z" fill="#e1c0e8"></path><path d="m112 160h16v16h-16z" fill="#e1c0e8"></path><path d="m128 160h16v16h-16z" fill="#d2a3dd"></path><path d="m144 160h16v16h-16z" fill="#e1c0e8"></path><path d="m160 160h16v16h-16z" fill="#b87cc6"></path><path d="m176 160h16v16h-16z" fill="#d2a3dd"></path><path d="m192 160h16v16h-16z" fill="#d2a3dd"></path><path d="m208 160h16v16h-16z" fill="#d2a3dd"></path><path d="m224 160h16v16h-16z" fill="#e1c0e8"></path><path d="m240 160h16v16h-16z" fill="#e1c0e8"></path><path d="m256 160h16v16h-16z" fill="#ddbae5"></path><path d="m272 160h16v16h-16z" fill="#e1c0e8"></path><path d="m288 160h16v16h-16z" fill="#e1c0e8"></path><path d="m304 160h16v16h-16z" fill="#b87cc6"></path><path d="m0 176h16v16h-16z" fill="#b87cc6"></path><path d="m16 176h16v16h-16z" fill="#b87cc6"></path><path d="m32 176h16v16h-16z" fill="#e1c0e8"></path><path d="m48 176h16v16h-16z" fill="#ddbae5"></path><path d="m64 176h16v16h-16z" fill="#d2a3dd"></path><path d="m80 176h16v16h-16z" fill="#e1c0e8"></path><path d="m96 176h16v16h-16z" fill="#e1c0e8"></path><path d="m112 176h16v16h-16z" fill="#d2a3dd"></path><path d="m128 176h16v16h-16z" fill="#d2a3dd"></path><path d="m144 176h16v16h-16z" fill="#e1c0e8"></path><path d="m160 176h16v16h-16z" fill="#b87cc6"></path><path d="m176 176h16v16h-16z" fill="#d2a3dd"></path><path d="m192 176h16v16h-16z" fill="#b87cc6"></path><path d="m208 176h16v16h-16z" fill="#b87cc6"></path><path d="m224 176h16v16h-16z" fill="#e1c0e8"></path><path d="m240 176h16v16h-16z" fill="#e1c0e8"></path><path d="m256 176h16v16h-16z" fill="#d2a3dd"></path><path d="m272 176h16v16h-16z" fill="#e1c0e8"></path><path d="m288 176h16v16h-16z" fill="#b87cc6"></path><path d="m0 192h16v16h-16z" fill="#b87cc6"></path><path d="m16 192h16v16h-16z" fill="#b87cc6"></path><path d="m32 192h16v16h-16z" fill="#e1c0e8"></path><path d="m48 192h16v16h-16z" fill="#d2a3dd"></path><path d="m64 192h16v16h-16z" fill="#d2a3dd"></path><path d="m80 192h16v16h-16z" fill="#b87cc6"></path><path d="m96 192h16v16h-16z" fill="#b87cc6"></path><path d="m112 192h16v16h-16z" fill="#b87cc6"></path><path d="m128 192h16v16h-16z" fill="#d2a3dd"></path><path d="m144 192h16v16h-16z" fill="#d2a3dd"></path><path d="m160 192h16v16h-16z" fill="#b87cc6"></path><path d="m176 192h16v16h-16z" fill="#d2a3dd"></path><path d="m192 192h16v16h-16z" fill="#292929"></path><path d="m208 192h16v16h-16z" fill="#292929"></path><path d="m224 192h16v16h-16z" fill="#b87cc6"></path><path d="m240 192h16v16h-16z" fill="#e1c0e8"></path><path d="m256 192h16v16h-16z" fill="#d2a3dd"></path><path d="m272 192h16v16h-16z" fill="#d2a3dd"></path><path d="m288 192h16v16h-16z" fill="#b87cc6"></path><path d="m0 208h16v16h-16z" fill="#b87cc6"></path><path d="m16 208h16v16h-16z" fill="#b87cc6"></path><path d="m32 208h16v16h-16z" fill="#e1c0e8"></path><path d="m48 208h16v16h-16z" fill="#d2a3dd"></path><path d="m64 208h16v16h-16z" fill="#d2a3dd"></path><path d="m80 208h16v16h-16z" fill="#d2a3dd"></path><path d="m96 208h16v16h-16z" fill="#b87cc6"></path><path d="m112 208h16v16h-16z" fill="#b87cc6"></path><path d="m128 208h16v16h-16z" fill="#d2a3dd"></path><path d="m144 208h16v16h-16z" fill="#d2a3dd"></path><path d="m160 208h16v16h-16z" fill="#b87cc6"></path><path d="m176 208h16v16h-16z" fill="#b87cc6"></path><path d="m192 208h16v16h-16z" fill="#9f34b7"></path><path d="m208 208h16v16h-16z" fill="#ffffff"></path><path d="m224 208h16v16h-16z" fill="#b87cc6"></path><path d="m240 208h16v16h-16z" fill="#e1c0e8"></path><path d="m256 208h16v16h-16z" fill="#b87cc6"></path><path d="m272 208h16v16h-16z" fill="#d2a3dd"></path><path d="m288 208h16v16h-16z" fill="#b87cc6"></path><path d="m16 224h16v16h-16z" fill="#b87cc6"></path><path d="m32 224h16v16h-16z" fill="#e1c0e8"></path><path d="m48 224h16v16h-16z" fill="#d2a3dd"></path><path d="m64 224h16v16h-16z" fill="#b87cc6"></path><path d="m80 224h16v16h-16z" fill="#d2a3dd"></path><path d="m96 224h16v16h-16z" fill="#b87cc6"></path><path d="m112 224h16v16h-16z" fill="#b87cc6"></path><path d="m128 224h16v16h-16z" fill="#d2a3dd"></path><path d="m144 224h16v16h-16z" fill="#d2a3dd"></path><path d="m160 224h16v16h-16z" fill="#b87cc6"></path><path d="m176 224h16v16h-16z" fill="#b87cc6"></path><path d="m192 224h16v16h-16z" fill="#9f34b7"></path><path d="m208 224h16v16h-16z" fill="#9f34b7"></path><path d="m224 224h16v16h-16z" fill="#b87cc6"></path><path d="m240 224h16v16h-16z" fill="#e1c0e8"></path><path d="m256 224h16v16h-16z" fill="#b87cc6"></path><path d="m272 224h16v16h-16z" fill="#b87cc6"></path><path d="m16 240h16v16h-16z" fill="#b87cc6"></path><path d="m32 240h16v16h-16z" fill="#e1c0e8"></path><path d="m48 240h16v16h-16z" fill="#d2a3dd"></path><path d="m64 240h16v16h-16z" fill="#b87cc6"></path><path d="m80 240h16v16h-16z" fill="#d2a3dd"></path><path d="m96 240h16v16h-16z" fill="#b87cc6"></path><path d="m112 240h16v16h-16z" fill="#9d704c"></path><path d="m128 240h16v16h-16z" fill="#b87cc6"></path><path d="m144 240h16v16h-16z" fill="#d2a3dd"></path><path d="m160 240h16v16h-16z" fill="#b87cc6"></path><path d="m176 240h16v16h-16z" fill="#fff7e1"></path><path d="m192 240h16v16h-16z" fill="#ec9bfd"></path><path d="m208 240h16v16h-16z" fill="#ec9bfd"></path><path d="m224 240h16v16h-16z" fill="#b87cc6"></path><path d="m240 240h16v16h-16z" fill="#b87cc6"></path><path d="m256 240h16v16h-16z" fill="#b87cc6"></path><path d="m272 240h16v16h-16z" fill="#534721"></path><path d="m32 256h16v16h-16z" fill="#b87cc6"></path><path d="m48 256h16v16h-16z" fill="#b87cc6"></path><path d="m64 256h16v16h-16z" fill="#b87cc6"></path><path d="m80 256h16v16h-16z" fill="#d2a3dd"></path><path d="m96 256h16v16h-16z" fill="#b87cc6"></path><path d="m112 256h16v16h-16z" fill="#e9b898"></path><path d="m128 256h16v16h-16z" fill="#fff7e1"></path><path d="m144 256h16v16h-16z" fill="#fff7e1"></path><path d="m160 256h16v16h-16z" fill="#b87cc6"></path><path d="m176 256h16v16h-16z" fill="#fff7e1"></path><path d="m192 256h16v16h-16z" fill="#fff7e1"></path><path d="m208 256h16v16h-16z" fill="#fff7e1"></path><path d="m224 256h16v16h-16z" fill="#fff7e1"></path><path d="m240 256h16v16h-16z" fill="#fff7e1"></path><path d="m256 256h16v16h-16z" fill="#9d704c"></path><path d="m272 256h16v16h-16z" fill="#534721"></path><path d="m48 272h16v16h-16z" fill="#b87cc6"></path><path d="m64 272h16v16h-16z" fill="#b87cc6"></path><path d="m80 272h16v16h-16z" fill="#d2a3dd"></path><path d="m96 272h16v16h-16z" fill="#b87cc6"></path><path d="m112 272h16v16h-16z" fill="#d7906e"></path><path d="m128 272h16v16h-16z" fill="#ffe1af"></path><path d="m144 272h16v16h-16z" fill="#fff7e1"></path><path d="m160 272h16v16h-16z" fill="#fff7e1"></path><path d="m176 272h16v16h-16z" fill="#fff7e1"></path><path d="m192 272h16v16h-16z" fill="#fff7e1"></path><path d="m208 272h16v16h-16z" fill="#fff7e1"></path><path d="m224 272h16v16h-16z" fill="#fff7e1"></path><path d="m240 272h16v16h-16z" fill="#d7906e"></path><path d="m256 272h16v16h-16z" fill="#534721"></path><path d="m48 288h16v16h-16z" fill="#b87cc6"></path><path d="m64 288h16v16h-16z" fill="#b87cc6"></path><path d="m80 288h16v16h-16z" fill="#d2a3dd"></path><path d="m96 288h16v16h-16z" fill="#b87cc6"></path><path d="m112 288h16v16h-16z" fill="#534721"></path><path d="m128 288h16v16h-16z" fill="#9d704c"></path><path d="m144 288h16v16h-16z" fill="#eebe93"></path><path d="m160 288h16v16h-16z" fill="#eebe93"></path><path d="m176 288h16v16h-16z" fill="#eebe93"></path><path d="m192 288h16v16h-16z" fill="#d7906e"></path><path d="m208 288h16v16h-16z" fill="#d7906e"></path><path d="m224 288h16v16h-16z" fill="#9d704c"></path><path d="m240 288h16v16h-16z" fill="#534721"></path><path d="m48 304h16v16h-16z" fill="#b87cc6"></path><path d="m64 304h16v16h-16z" fill="#534721"></path><path d="m80 304h16v16h-16z" fill="#b87cc6"></path><path d="m96 304h16v16h-16z" fill="#b87cc6"></path><path d="m112 304h16v16h-16z" fill="#8c7749"></path><path d="m128 304h16v16h-16z" fill="#534721"></path><path d="m144 304h16v16h-16z" fill="#534721"></path><path d="m160 304h16v16h-16z" fill="#534721"></path><path d="m176 304h16v16h-16z" fill="#534721"></path><path d="m192 304h16v16h-16z" fill="#534721"></path><path d="m208 304h16v16h-16z" fill="#534721"></path><path d="m224 304h16v16h-16z" fill="#534721"></path><path d="m64 320h16v16h-16z" fill="#534721"></path><path d="m80 320h16v16h-16z" fill="#b79859"></path><path d="m96 320h16v16h-16z" fill="#534721"></path><path d="m112 320h16v16h-16z" fill="#b79859"></path><path d="m128 320h16v16h-16z" fill="#8c7749"></path><path d="m144 320h16v16h-16z" fill="#8c7749"></path><path d="m160 320h16v16h-16z" fill="#8c7749"></path><path d="m176 320h16v16h-16z" fill="#b79859"></path><path d="m192 320h16v16h-16z" fill="#b79859"></path><path d="m208 320h16v16h-16z" fill="#b79859"></path><path d="m224 320h16v16h-16z" fill="#8c4b4b"></path><path d="m64 336h16v16h-16z" fill="#534721"></path><path d="m80 336h16v16h-16z" fill="#b79859"></path><path d="m96 336h16v16h-16z" fill="#534721"></path><path d="m112 336h16v16h-16z" fill="#b79859"></path><path d="m128 336h16v16h-16z" fill="#b79859"></path><path d="m144 336h16v16h-16z" fill="#534721"></path><path d="m160 336h16v16h-16z" fill="#b79859"></path><path d="m176 336h16v16h-16z" fill="#b79859"></path><path d="m192 336h16v16h-16z" fill="#b79859"></path><path d="m208 336h16v16h-16z" fill="#b79859"></path><path d="m224 336h16v16h-16z" fill="#b79859"></path><path d="m80 352h16v16h-16z" fill="#534721"></path><path d="m96 352h16v16h-16z" fill="#534721"></path><path d="m112 352h16v16h-16z" fill="#b79859"></path><path d="m128 352h16v16h-16z" fill="#b79859"></path><path d="m144 352h16v16h-16z" fill="#b79859"></path><path d="m160 352h16v16h-16z" fill="#534721"></path><path d="m176 352h16v16h-16z" fill="#b79859"></path><path d="m192 352h16v16h-16z" fill="#b79859"></path><path d="m208 352h16v16h-16z" fill="#b79859"></path><path d="m224 352h16v16h-16z" fill="#534721"></path><path d="m96 368h16v16h-16z" fill="#534721"></path><path d="m112 368h16v16h-16z" fill="#b79859"></path><path d="m128 368h16v16h-16z" fill="#b79859"></path><path d="m144 368h16v16h-16z" fill="#b79859"></path><path d="m160 368h16v16h-16z" fill="#b79859"></path><path d="m176 368h16v16h-16z" fill="#534721"></path><path d="m192 368h16v16h-16z" fill="#b79859"></path><path d="m208 368h16v16h-16z" fill="#b79859"></path><path d="m224 368h16v16h-16z" fill="#534721"></path><path d="m96 384h16v16h-16z" fill="#534721"></path><path d="m112 384h16v16h-16z" fill="#8c7749"></path><path d="m128 384h16v16h-16z" fill="#b79859"></path><path d="m144 384h16v16h-16z" fill="#d7906e"></path><path d="m160 384h16v16h-16z" fill="#fff7e1"></path><path d="m176 384h16v16h-16z" fill="#fff7e1"></path><path d="m192 384h16v16h-16z" fill="#b79859"></path><path d="m208 384h16v16h-16z" fill="#b79859"></path><path d="m224 384h16v16h-16z" fill="#534721"></path><path d="m96 400h16v16h-16z" fill="#534721"></path><path d="m112 400h16v16h-16z" fill="#534721"></path><path d="m128 400h16v16h-16z" fill="#534721"></path><path d="m144 400h16v16h-16z" fill="#d7906e"></path><path d="m160 400h16v16h-16z" fill="#fff7e1"></path><path d="m176 400h16v16h-16z" fill="#fff7e1"></path><path d="m192 400h16v16h-16z" fill="#534721"></path><path d="m208 400h16v16h-16z" fill="#534721"></path><path d="m224 400h16v16h-16z" fill="rgba(83,71,33,.977)"></path><path d="m96 416h16v16h-16z" fill="#222429"></path><path d="m112 416h16v16h-16z" fill="#3c3f46"></path><path d="m128 416h16v16h-16z" fill="#3c3f46"></path><path d="m144 416h16v16h-16z" fill="#d7906e"></path><path d="m160 416h16v16h-16z" fill="#d7906e"></path><path d="m176 416h16v16h-16z" fill="#d7906e"></path><path d="m192 416h16v16h-16z" fill="#3c3f46"></path><path d="m208 416h16v16h-16z" fill="#3c3f46"></path><path d="m80 432h16v16h-16z" fill="rgba(80,64,32,.063)"></path><path d="m96 432h16v16h-16z" fill="#222429"></path><path d="m112 432h16v16h-16z" fill="#3c3f46"></path><path d="m128 432h16v16h-16z" fill="#3c3f46"></path><path d="m144 432h16v16h-16z" fill="#3c3f46"></path><path d="m160 432h16v16h-16z" fill="#222429"></path><path d="m176 432h16v16h-16z" fill="#3c3f46"></path><path d="m192 432h16v16h-16z" fill="#3c3f46"></path><path d="m208 432h16v16h-16z" fill="#70737a"></path><path d="m224 432h16v16h-16z" fill="#222429"></path><path d="m240 432h16v16h-16z" fill="rgba(78,67,33,.09)"></path><path d="m80 448h16v16h-16z" fill="rgba(82,73,36,.109)"></path><path d="m96 448h16v16h-16z" fill="#222429"></path><path d="m112 448h16v16h-16z" fill="#222429"></path><path d="m128 448h16v16h-16z" fill="#222429"></path><path d="m144 448h16v16h-16z" fill="#222429"></path><path d="m176 448h16v16h-16z" fill="#222429"></path><path d="m192 448h16v16h-16z" fill="#3c3f46"></path><path d="m208 448h16v16h-16z" fill="#222429"></path><path d="m224 448h16v16h-16z" fill="#222429"></path></svg>