<?xml version="1.0" encoding="UTF-8" standalone="no"?>
<!DOCTYPE svg PUBLIC "-//W3C//DTD SVG 1.1//EN" "http://www.w3.org/Graphics/SVG/1.1/DTD/svg11.dtd">
<svg width="64.00" height="64.00" viewBox="0.00 0.00 128.00 128.00" xmlns="http://www.w3.org/2000/svg" xmlns:xlink="http://www.w3.org/1999/xlink">
<g stroke-linecap="round" id="レイヤー_1">
<path d="M11.16,13.42 C11.16,13.42 9.77,13.64 9.77,13.64 C29.33,13.48 37.49,14.03 37.97,14.08 C38.33,14.12 39.02,14.22 40.06,14.37" fill="none" stroke="rgb(0, 0, 0)" stroke-width="8.00" stroke-opacity="1.00" stroke-linejoin="round"/>
<path d="M25.22,12.96 C25.21,13.85 25.20,16.07 25.20,17.39 C25.24,22.81 25.58,26.21 26.41,30.15 C26.47,30.44 26.54,30.86 26.62,31.43" fill="none" stroke="rgb(0, 0, 0)" stroke-width="8.00" stroke-opacity="1.00" stroke-linejoin="round"/>
<path d="M50.30,40.71 C50.30,40.71 50.65,40.71 50.65,40.71 C48.63,40.53 42.05,39.81 39.75,40.00 C38.55,40.11 37.74,40.35 37.16,40.68 C36.69,43.84 37.38,55.49 37.52,56.40 C37.61,56.88 37.81,57.81 38.15,59.17" fill="none" stroke="rgb(0, 0, 0)" stroke-width="8.00" stroke-opacity="1.00" stroke-linejoin="round"/>
<path d="M36.53,53.70 C36.53,53.70 36.39,53.65 36.39,53.65 C36.39,53.65 36.21,53.39 36.21,53.39 C37.17,52.93 51.39,52.53 52.14,52.74 C52.52,52.84 52.77,53.17 52.89,53.70" fill="none" stroke="rgb(0, 0, 0)" stroke-width="8.00" stroke-opacity="1.00" stroke-linejoin="round"/>
<path d="M39.50,59.64 C39.50,59.64 39.39,59.91 39.39,59.91 C39.95,60.44 41.48,60.86 43.60,60.93 C44.33,60.96 53.42,60.58 54.00,60.50 C54.40,60.45 55.07,60.31 56.00,60.08" fill="none" stroke="rgb(0, 0, 0)" stroke-width="8.00" stroke-opacity="1.00" stroke-linejoin="round"/>
<path d="M75.05,68.57 C75.52,68.50 76.19,68.16 76.38,67.73 C76.45,67.58 76.50,67.28 76.52,66.82 C75.55,65.88 73.51,64.84 71.51,64.47 C69.90,64.19 67.03,64.67 65.72,65.37 C64.49,66.08 63.31,67.90 63.44,68.95 C63.62,70.01 65.50,71.80 67.47,73.04 C68.07,73.41 74.76,77.01 77.13,79.18 C78.38,80.33 78.97,81.57 79.25,83.11 C78.56,84.37 77.23,85.47 75.40,85.91 C72.72,86.53 67.01,86.21 64.06,85.11 C63.08,84.74 62.47,84.30 62.24,83.80 C62.09,83.44 61.92,82.51 61.75,81.01" fill="none" stroke="rgb(0, 0, 0)" stroke-width="8.00" stroke-opacity="1.00" stroke-linejoin="round"/>
<path d="M83.50,91.24 C83.50,91.24 82.63,91.73 82.63,91.73 C85.26,93.18 91.02,94.15 94.95,94.42 C98.63,94.63 105.14,95.00 107.22,94.97 C107.59,94.96 107.96,94.95 108.33,94.94" fill="none" stroke="rgb(0, 0, 0)" stroke-width="8.00" stroke-opacity="1.00" stroke-linejoin="round"/>
<path d="M97.10,94.42 C96.73,94.87 96.12,96.06 96.07,97.07 C96.00,98.78 98.10,111.67 98.30,112.83 C98.33,113.01 98.35,113.08 98.36,113.05" fill="none" stroke="rgb(0, 0, 0)" stroke-width="8.00" stroke-opacity="1.00" stroke-linejoin="round"/>
</g>
</svg>
